PathFileType  4	(X/Y/Z) C:\Users\antoi\Documents\MyRepositories\mobilecap\ResultsAnalysis
DataRate	CameraRate	NumFrames	NumMarkers	Units	OrigDataRate	OrigDataStartFrame	OrigNumFrames
100.0	100.0	6	51	mm	100.0	106	121
Frame#	Time	r_knee			r_shank_antsup			r_ankle			r_calc			r_5meta			r_toe			L_knee			L_shank_antsup			L_ankle			L_calc			L_5meta			L_toe			r_sh2			r_sh3			r_sh4			L_sh2			L_sh3			r_thigh1			r_thigh2			r_thigh3			r_thigh4			r_thigh5			L_thigh1			L_thigh2			L_thigh3			L_thigh4			r.ASIS			r.PSIS			L.ASIS			L.PSIS			C7			R_Shoulder			L_Shoulder			R_Sternum			L_Sternum			R_humerus			R_elbow_med			R_elbow_lat			R_forearm			R_wrist_radius			R_wrist_ulna			L_humerus			L_elbow_med			L_elbow_lat			L_forearm			L_wrist_radius			L_wrist_ulna			R_HJC			L_HJC			R_HJC_reg			L_HJC_reg			
		X1	Y1	Z1	X2	Y2	Z2	X3	Y3	Z3	X4	Y4	Z4	X5	Y5	Z5	X6	Y6	Z6	X7	Y7	Z7	X8	Y8	Z8	X9	Y9	Z9	X10	Y10	Z10	X11	Y11	Z11	X12	Y12	Z12	X13	Y13	Z13	X14	Y14	Z14	X15	Y15	Z15	X16	Y16	Z16	X17	Y17	Z17	X18	Y18	Z18	X19	Y19	Z19	X20	Y20	Z20	X21	Y21	Z21	X22	Y22	Z22	X23	Y23	Z23	X24	Y24	Z24	X25	Y25	Z25	X26	Y26	Z26	X27	Y27	Z27	X28	Y28	Z28	X29	Y29	Z29	X30	Y30	Z30	X31	Y31	Z31	X32	Y32	Z32	X33	Y33	Z33	X34	Y34	Z34	X35	Y35	Z35	X36	Y36	Z36	X37	Y37	Z37	X38	Y38	Z38	X39	Y39	Z39	X40	Y40	Z40	X41	Y41	Z41	X42	Y42	Z42	X43	Y43	Z43	X44	Y44	Z44	X45	Y45	Z45	X46	Y46	Z46	X47	Y47	Z47	X48	Y48	Z48	X49	Y49	Z49	X50	Y50	Z50	X51	Y51	Z51	

106	1.05000000	1439.80773	452.97724	-44.02228	1469.63665	387.32299	-24.02638	1521.05549	87.64216	-65.18378	1458.14528	50.75907	-101.35145	1631.31931	56.58627	-48.18647	1665.78306	89.33499	-103.91343	1149.39704	440.20713	-312.88052	1132.42931	368.36051	-312.75516	906.15729	156.55090	-274.72604	829.08789	171.51377	-228.60150	943.71404	58.29819	-298.56826	995.58393	49.94871	-244.25743	1496.05058	278.01071	-24.54856	1397.49597	368.66436	-32.68946	1415.92761	254.38202	-37.02163	1068.53216	429.76723	-329.23225	993.43870	333.91725	-325.33449	1383.40174	761.52927	-39.49215	1432.22793	659.10346	-37.63150	1398.36753	620.77725	6.52815	1296.19850	723.88116	24.58015	1339.55680	616.31232	10.10278	1287.14579	707.33051	-337.35263	1260.03334	569.61956	-333.69692	1171.87742	728.77376	-346.15190	1152.21436	588.37282	-328.33315	1342.13243	882.26137	-45.52215	1153.75774	879.56278	-102.51732	1324.64324	877.38435	-304.92544	1145.43241	883.08814	-207.44782	1195.91718	1357.97559	-141.85153	1256.79637	1298.11482	11.07625	1249.48618	1307.66686	-304.15191	1312.26811	1272.80795	-127.90150	1309.93995	1273.62987	-172.16331	1236.26082	1052.01375	74.99295	1188.90219	957.90066	11.96346	1196.78069	972.40367	81.38804	1221.09048	854.94270	104.16878	1214.14627	735.29504	109.12165	1170.11181	739.79378	114.41885	1316.96139	1200.33026	-354.60727	1338.72265	974.79501	-345.35887	1352.93255	996.21756	-402.36970	1464.20354	977.99830	-394.32649	1572.87449	923.93554	-360.26562	1566.17713	893.34969	-381.92359	1282.84638	800.12920	-67.90889	1268.91107	801.65615	-267.72340	1288.90741	786.36100	-81.38050	1275.34014	792.10239	-252.36951	
107	1.06000000	1454.05930	453.51633	-43.98372	1482.28897	386.86556	-24.18513	1524.89587	86.69066	-66.18272	1459.74381	52.27764	-101.97477	1633.42481	52.08822	-48.38963	1669.79452	82.76388	-104.43707	1172.76530	437.84402	-314.24074	1152.95032	366.82057	-314.55093	919.43316	163.90599	-273.52624	845.66545	185.68786	-226.10469	948.04243	62.79844	-297.33093	999.31319	49.86494	-243.91423	1506.12665	276.97468	-25.03093	1409.83792	369.94381	-33.54128	1425.72297	255.18520	-38.18896	1091.20215	430.89656	-329.05526	1012.51409	338.18511	-323.99772	1398.62055	762.48773	-38.56682	1447.30524	659.93544	-37.14429	1413.30142	621.55915	6.89938	1311.69647	725.11507	26.04389	1354.63873	617.60699	10.74795	1305.55806	707.44796	-335.76221	1281.23115	568.99572	-334.40496	1190.13275	726.64515	-343.91957	1173.18579	585.68582	-327.84975	1357.95125	883.04331	-43.87688	1169.36317	880.20888	-101.39281	1340.85143	877.75176	-303.15261	1161.52146	882.81941	-206.52452	1210.14952	1358.14861	-138.98017	1271.89246	1298.34324	13.77273	1263.52760	1307.98343	-301.59316	1326.88170	1273.41485	-125.28592	1324.47308	1274.23880	-169.53484	1252.39624	1051.95334	77.08767	1205.31293	957.88298	13.70276	1213.00758	972.21119	83.14353	1237.26103	854.74262	105.71853	1230.25298	735.06177	110.35341	1186.21345	739.57540	115.53935	1330.25874	1199.92894	-352.54095	1350.71132	974.12869	-342.89306	1364.19370	995.49678	-400.08185	1475.62648	977.06302	-392.33628	1584.31968	922.92567	-358.11109	1577.71657	892.49357	-380.01827	1298.69493	800.84973	-66.23378	1285.31056	801.85312	-266.08127	1304.25296	787.91997	-79.11593	1291.49616	792.16830	-250.09609	
108	1.07000000	1467.89690	454.60011	-43.64914	1494.47212	386.92015	-24.02678	1527.73306	86.10871	-66.94658	1460.87435	53.36310	-102.33020	1634.88726	48.98773	-48.44247	1672.66839	77.79017	-104.88127	1197.11832	435.49695	-315.76592	1174.66864	365.47990	-316.53205	934.56262	171.58946	-272.20263	865.26113	200.41678	-223.31181	953.23722	68.32144	-295.93777	1003.72838	50.32887	-243.72535	1515.48743	276.47359	-25.13246	1421.59059	371.87910	-33.69100	1434.79104	256.64434	-38.54430	1115.13604	432.08426	-328.80886	1033.06418	342.55884	-322.48609	1413.52399	764.05989	-37.19556	1462.03301	661.38992	-36.07305	1427.82708	622.96647	7.85099	1326.71561	726.91882	27.69432	1369.31150	619.43781	11.75799	1324.13894	707.78355	-334.27997	1303.01028	568.58581	-335.32655	1208.58040	724.34253	-341.79110	1194.83464	582.83727	-327.59945	1373.22877	884.39286	-42.07686	1184.55859	881.40574	-100.63642	1356.89375	878.33478	-301.23324	1177.30202	882.76667	-206.00609	1224.33890	1358.71412	-136.17119	1286.96774	1298.93466	16.40229	1277.56872	1308.62755	-299.15131	1341.40628	1274.33362	-122.72252	1338.90721	1275.15002	-166.94617	1268.75132	1052.26258	79.16390	1221.89975	958.20489	15.49706	1229.49533	972.36982	84.94121	1253.81610	854.90850	107.29569	1246.88364	735.18540	111.62206	1202.84914	739.66776	116.75154	1343.34680	1199.72821	-350.65214	1362.27263	973.66977	-340.39557	1375.03957	994.89565	-397.82923	1486.54070	975.98896	-390.47944	1595.10977	921.42253	-356.19899	1588.52554	891.21602	-378.38867	1313.99024	802.12392	-64.46685	1301.57577	802.28154	-264.36437	1319.07228	790.22724	-76.46437	1307.29206	792.44555	-247.43688	
109	1.08000000	1481.01776	456.01486	-42.92485	1505.97849	387.31313	-23.46994	1529.65115	85.78650	-67.42542	1461.59451	54.06271	-102.46186	1635.82031	47.00218	-48.34818	1674.56584	74.23043	-105.19742	1222.27872	433.23850	-317.36759	1197.50959	364.31889	-318.61660	951.50120	179.51500	-270.80957	887.69366	215.21836	-220.30086	959.57514	74.91272	-294.45297	1009.07941	51.54655	-243.75615	1523.99580	276.34744	-24.80820	1432.53216	374.26611	-32.95754	1442.94438	258.59617	-37.95414	1140.25685	433.28802	-328.53330	1055.05302	346.91672	-320.91247	1428.11829	766.12311	-35.42185	1476.31928	663.29719	-34.49380	1441.83795	624.85942	9.28912	1341.25591	729.23813	29.48263	1383.45106	621.68390	13.10301	1342.70108	708.35681	-332.97218	1325.16338	568.46823	-336.34120	1227.04165	721.90682	-339.79290	1216.95509	579.92459	-327.54411	1387.94200	886.33389	-40.14462	1199.33981	883.08329	-100.23998	1372.66070	879.10520	-299.19665	1192.69563	882.94725	-205.87159	1238.47523	1359.66749	-133.47310	1301.99621	1299.88396	18.90863	1291.58011	1309.60135	-296.83651	1355.81723	1275.52650	-120.25901	1353.21450	1276.33084	-164.44514	1285.31681	1052.94887	81.18770	1238.63848	958.86893	17.33311	1246.24737	972.88906	86.77104	1270.77206	855.45099	108.88815	1264.05621	735.68122	112.93085	1220.03830	740.08075	118.07694	1356.23702	1199.79270	-348.91783	1373.37756	973.49257	-337.90464	1385.51390	994.50362	-395.60601	1496.99127	974.82548	-388.72906	1605.25704	919.43171	-354.52674	1598.59717	889.50782	-377.02524	1328.71538	803.94720	-62.62515	1317.62842	802.92758	-262.58103	1333.43692	793.15973	-73.50299	1322.67716	792.95574	-244.45998	
110	1.09000000	1493.06738	457.48731	-41.76732	1516.56125	387.82261	-22.46732	1530.83472	85.63077	-67.60401	1462.00494	54.47586	-102.43646	1636.35425	45.80482	-48.10604	1675.71982	71.79788	-105.33641	1248.07321	431.18285	-318.93697	1221.37048	363.36328	-320.68258	970.13306	187.59450	-269.37433	912.48990	229.56306	-217.13709	967.48016	82.51034	-292.94925	1015.82491	53.71711	-244.02691	1531.53609	276.39789	-24.04808	1442.46082	376.80323	-31.34856	1450.04658	260.80106	-36.49158	1166.42704	434.51581	-328.24046	1078.38288	351.17339	-319.37073	1442.41062	768.44929	-33.33157	1490.03492	665.36024	-32.50591	1455.15776	626.99010	11.08539	1355.30666	731.96641	31.32981	1396.86413	624.16987	14.70082	1361.07890	709.20442	-331.86232	1347.49710	568.73481	-337.30179	1245.35583	719.41924	-337.92261	1239.33855	577.08759	-327.58624	1402.14487	888.82817	-38.14124	1213.73331	885.14223	-100.12584	1388.04168	880.05196	-297.10590	1207.66162	883.38209	-206.02597	1252.54149	1360.98994	-130.92769	1316.95615	1301.17382	21.24135	1305.52274	1310.90698	-294.65187	1370.09220	1276.95710	-117.94105	1367.37108	1277.75273	-162.08056	1302.07327	1054.00759	83.12777	1255.49780	959.86316	19.19891	1263.25688	973.76429	88.62327	1288.13546	856.36852	110.48097	1281.78509	736.55213	114.27880	1237.79556	740.81491	119.53356	1368.93696	1200.17852	-347.31179	1384.01952	973.66423	-335.44941	1395.64462	994.40736	-393.40197	1507.02113	973.62165	-387.05792	1614.77213	916.97663	-353.09041	1607.92454	887.36892	-375.91491	1342.92447	806.26470	-60.74773	1333.38069	803.78818	-260.75877	1347.44064	796.54663	-70.37190	1337.63478	793.72410	-241.29917	
111	1.10000000	1503.77384	458.77490	-40.22510	1526.01968	388.24455	-21.05121	1531.50709	85.57047	-67.51315	1462.21632	54.70636	-102.32238	1636.61613	45.10403	-47.73999	1676.36515	70.18030	-105.29100	1274.34067	429.49034	-320.36809	1246.12430	362.69933	-322.58542	990.28926	195.73231	-267.90725	938.92304	242.94726	-213.88555	977.52319	90.91276	-291.50593	1024.64121	56.98912	-244.49585	1538.05328	276.44202	-22.90961	1451.25849	379.18471	-29.06020	1456.04952	263.00929	-34.40463	1193.44975	435.83032	-327.91726	1102.89121	355.30008	-317.92831	1456.39748	770.77894	-31.04160	1503.06826	667.26385	-30.21823	1467.62763	629.09365	13.10885	1368.85305	734.96441	33.15149	1409.37727	626.72003	16.43452	1379.15647	710.37368	-330.92717	1369.85463	569.47539	-338.07643	1263.41119	716.99544	-336.14982	1261.81008	574.48951	-327.58985	1415.94315	891.77602	-36.15621	1227.78117	887.47398	-100.15449	1402.94026	881.18586	-295.04998	1222.19545	884.08917	-206.30711	1266.51039	1362.64921	-128.56616	1331.82774	1302.77496	23.35817	1319.35697	1312.54370	-292.60121	1384.21228	1278.59177	-115.81048	1381.35833	1279.39112	-159.89963	1318.99197	1055.42128	84.95618	1272.43727	961.16204	21.08416	1280.50319	974.97676	90.48749	1305.89904	857.64684	112.05808	1300.07656	737.78629	115.66149	1256.12904	741.86012	121.13565	1381.45059	1200.92176	-345.81614	1394.22551	974.23407	-333.04115	1405.44563	994.66880	-391.21126	1516.66363	972.41603	-385.44808	1623.65984	914.09086	-351.88967	1616.50313	884.81274	-375.04605	1356.72431	808.97751	-58.88686	1348.74075	804.87218	-258.93894	1361.16818	800.20449	-67.24633	1352.17259	794.77125	-238.12905	
